HIERARCHY
ROOT Hips
{
	OFFSET 0.000000 0.000000 0.000000
	CHANNELS 6 Xposition Yposition Zposition Yrotation Xrotation Zrotation
	JOINT Chest
	{
		OFFSET 0.000000 -0.009281 11.569106
		CHANNELS 3 Yrotation Xrotation Zrotation
		JOINT Chest2
		{
			OFFSET -0.000000 0.016865 9.269641
			CHANNELS 3 Yrotation Xrotation Zrotation
			JOINT Chest3
			{
				OFFSET -0.000000 0.000001 8.374491
				CHANNELS 3 Yrotation Xrotation Zrotation
				JOINT Chest4
				{
					OFFSET -0.000000 0.000001 8.374493
					CHANNELS 3 Yrotation Xrotation Zrotation
					JOINT Neck
					{
						OFFSET -0.000000 0.000002 12.152554
						CHANNELS 3 Yrotation Xrotation Zrotation
						JOINT Head
						{
							OFFSET -0.000000 0.040101 7.802319
							CHANNELS 3 Yrotation Xrotation Zrotation
							End Site
							{
								OFFSET -0.000000 0.020947 14.853096
							}
						}
					}
					JOINT RightCollar
					{
						OFFSET 2.894404 0.000001 6.791374
						CHANNELS 3 Yrotation Xrotation Zrotation
						JOINT RightShoulder
						{
							OFFSET 13.574684 0.000001 0.000000
							CHANNELS 3 Yrotation Xrotation Zrotation
							JOINT RightElbow
							{
								OFFSET 23.923903 0.000002 0.000000
								CHANNELS 3 Yrotation Xrotation Zrotation
								JOINT RightWrist
								{
									OFFSET 19.846718 0.012767 0.000000
									CHANNELS 3 Yrotation Xrotation Zrotation
									End Site
									{
										OFFSET 14.973145 0.000001 0.000000
									}
								}
							}
						}
					}
					JOINT LeftCollar
					{
						OFFSET -2.894404 0.000001 6.791374
						CHANNELS 3 Yrotation Xrotation Zrotation
						JOINT LeftShoulder
						{
							OFFSET -13.574684 -0.000001 0.000000
							CHANNELS 3 Yrotation Xrotation Zrotation
							JOINT LeftElbow
							{
								OFFSET -23.923903 -0.000002 0.000000
								CHANNELS 3 Yrotation Xrotation Zrotation
								JOINT LeftWrist
								{
									OFFSET -19.846718 0.012763 0.000000
									CHANNELS 3 Yrotation Xrotation Zrotation
									End Site
									{
										OFFSET -14.973145 -0.000001 0.000000
									}
								}
							}
						}
					}
				}
			}
		}
	}
	JOINT RightHip
	{
		OFFSET 9.469263 0.004643 0.045487
		CHANNELS 3 Yrotation Xrotation Zrotation
		JOINT RightKnee
		{
			OFFSET 0.000000 0.002661 -40.478676
			CHANNELS 3 Yrotation Xrotation Zrotation
			JOINT RightAnkle
			{
				OFFSET 0.000000 0.049106 -35.224068
				CHANNELS 3 Yrotation Xrotation Zrotation
				JOINT RightToe
				{
					OFFSET -0.000001 12.539529 -6.151390
					CHANNELS 3 Yrotation Xrotation Zrotation
					End Site
					{
						OFFSET -0.000001 5.044994 -1.291870
					}
				}
			}
		}
	}
	JOINT LeftHip
	{
		OFFSET -9.469263 0.004641 0.045487
		CHANNELS 3 Yrotation Xrotation Zrotation
		JOINT LeftKnee
		{
			OFFSET 0.000000 0.002661 -40.478676
			CHANNELS 3 Yrotation Xrotation Zrotation
			JOINT LeftAnkle
			{
				OFFSET 0.000000 0.049106 -35.224068
				CHANNELS 3 Yrotation Xrotation Zrotation
				JOINT LeftToe
				{
					OFFSET -0.000001 12.539529 -6.151390
					CHANNELS 3 Yrotation Xrotation Zrotation
					End Site
					{
						OFFSET -0.000001 5.044994 -1.291870
					}
				}
			}
		}
	}
}
MOTION
Frames: 16
Frame Time: 0.016667
13.385414 3.420402 82.675613 -4.438430 -1.216796 -109.605357 9.481769 -0.147924 -7.690405 4.172349 -0.225407 -3.356514 4.172348 -0.225408 -3.356511 3.128131 -0.191989 -2.515982 5.410252 -18.924639 -20.113604 3.712363 0.221030 -35.099215 6.349804 11.772179 -4.797399 52.436865 29.789040 11.565684 35.105171 32.457342 44.181113 -34.695148 46.058844 21.733626 -7.959911 1.883913 -11.275585 -69.534925 48.241554 -65.483025 -44.151063 43.714928 -57.221669 52.755152 45.162416 9.314505 -1.848693 -11.640761 2.704898 -0.535861 0.564575 2.058863 1.253624 6.833739 -2.653071 -0.022265 -0.143346 -0.094724 -3.339640 -11.466885 2.275105 0.359125 0.061110 4.455321 0.651339 6.128542 0.227128 0.038542 0.129979 0.076528 
13.406588 3.412148 82.670418 -4.482436 -1.256023 -109.820446 9.489855 -0.152479 -7.692064 4.175100 -0.227696 -3.354441 4.175102 -0.227698 -3.354434 3.130183 -0.193709 -2.514407 5.398491 -18.974368 -20.096507 3.707230 0.130173 -35.066966 6.383194 11.697969 -4.778467 52.496964 29.690860 11.522478 35.651057 32.863855 44.565758 -34.232403 45.977388 19.614232 -7.939435 1.889208 -11.278416 -69.479095 48.326064 -65.438745 -44.029271 43.817754 -57.020823 52.551493 45.055708 9.311301 -1.861147 -11.676269 2.752232 -0.553845 0.552345 2.151255 1.270672 6.842752 -2.595838 -0.025307 -0.149769 -0.093888 -3.356886 -11.538923 2.354728 0.354310 0.033470 4.543255 0.657904 6.179523 0.270166 0.033296 0.127551 0.075592 
13.421496 3.400275 82.665596 -4.512357 -1.293728 -110.030659 9.498121 -0.146377 -7.690111 4.177776 -0.225580 -3.351611 4.177777 -0.225581 -3.351614 3.132200 -0.192114 -2.512303 5.391167 -19.026506 -20.089427 3.707861 0.034613 -35.051387 6.420117 11.708051 -4.763833 52.466412 29.551923 11.390152 36.180837 33.260412 44.914166 -33.638624 45.893127 17.584315 -7.913823 1.876800 -11.276717 -69.398499 48.413651 -65.380333 -43.886213 43.906949 -56.809818 52.466102 44.857592 9.449784 -1.866024 -11.688724 2.822705 -0.570320 0.526552 2.222447 1.283011 6.854561 -2.542706 -0.028387 -0.154899 -0.092612 -3.365496 -11.592235 2.431877 0.348139 0.002448 4.631017 0.663696 6.232335 0.309388 0.027052 0.122785 0.074891 
13.430295 3.386986 82.660950 -4.530467 -1.330628 -110.232423 9.505610 -0.140983 -7.684737 4.180895 -0.223676 -3.347998 4.180895 -0.223675 -3.348002 3.134554 -0.190678 -2.509605 5.392733 -19.066726 -20.088712 3.719973 -0.038055 -35.045796 6.447171 11.804409 -4.771388 52.342137 29.334208 11.172756 36.763524 33.606983 45.242333 -33.227986 45.815632 15.463239 -7.897956 1.892963 -11.273816 -69.241500 48.487848 -65.260811 -43.745258 44.035790 -56.617296 52.455064 44.549154 9.682802 -1.871061 -11.682980 2.888220 -0.574902 0.493791 2.299740 1.289108 6.864543 -2.473387 -0.031739 -0.158084 -0.091792 -3.368246 -11.632147 2.507115 0.344266 -0.023882 4.704241 0.671659 6.280877 0.356848 0.018700 0.116389 0.073727 
13.436875 3.373099 82.656364 -4.547402 -1.368929 -110.430055 9.511049 -0.143422 -7.675245 4.183453 -0.224715 -3.342694 4.183454 -0.224715 -3.342692 3.136472 -0.191436 -2.505615 5.397483 -19.092095 -20.090624 3.733706 -0.083313 -35.045410 6.455629 11.832242 -4.785513 52.223562 29.159840 10.989105 37.244871 33.720548 45.462108 -33.274984 45.877790 13.258534 -7.876939 1.947819 -11.267467 -69.043220 48.567354 -65.103936 -43.619811 44.211166 -56.414702 52.419315 44.247202 9.946420 -1.871355 -11.678458 2.947157 -0.576629 0.463905 2.384655 1.292309 6.872795 -2.435719 -0.036831 -0.160646 -0.092276 -3.372547 -11.674872 2.598323 0.349713 -0.039490 4.762410 0.677283 6.324848 0.399677 0.009411 0.108842 0.073375 
13.443126 3.358224 82.651756 -4.565581 -1.403318 -110.611348 9.519247 -0.143100 -7.681655 4.187017 -0.224845 -3.344049 4.187018 -0.224845 -3.344051 3.139140 -0.191562 -2.506632 5.391015 -19.109196 -20.083128 3.728040 -0.114918 -35.032163 6.452745 11.798237 -4.771168 52.119019 29.027618 10.869706 37.560996 33.700259 45.598715 -33.731695 46.035052 10.942223 -7.862392 2.003851 -11.222652 -68.858907 48.668284 -64.949778 -43.532023 44.379280 -56.218512 52.391120 43.982795 10.195431 -1.872953 -11.679460 3.012299 -0.582626 0.442509 2.442566 1.300133 6.879486 -2.381978 -0.040654 -0.164612 -0.091722 -3.378717 -11.719354 2.670527 0.357812 -0.048425 4.826134 0.684628 6.362440 0.437907 -0.000877 0.103537 0.072069 
13.447017 3.343209 82.647255 -4.577034 -1.435845 -110.782485 9.523514 -0.135524 -7.693082 4.188925 -0.221815 -3.347840 4.188926 -0.221816 -3.347842 3.140587 -0.189325 -2.509496 5.384929 -19.126109 -20.071199 3.724188 -0.145477 -35.010710 6.465009 11.861647 -4.768296 51.993746 28.828627 10.742557 37.936445 33.772161 45.771697 -34.248969 46.003780 8.783062 -7.854526 2.039244 -11.191889 -68.628026 48.824333 -64.749517 -43.442814 44.518685 -56.024934 52.397530 43.689366 10.443572 -1.867490 -11.678326 3.080504 -0.592614 0.429398 2.490669 1.307878 6.881363 -2.334107 -0.044348 -0.167621 -0.090782 -3.382579 -11.754052 2.714660 0.366853 -0.058663 4.894571 0.694142 6.400125 0.493071 -0.010067 0.097349 0.071317 
13.448392 3.327458 82.643028 -4.584124 -1.467438 -110.948732 9.519659 -0.127775 -7.704371 4.187419 -0.218505 -3.351521 4.187420 -0.218504 -3.351520 3.139474 -0.186861 -2.512280 5.390053 -19.143574 -20.059142 3.740549 -0.174329 -34.985411 6.491075 11.997076 -4.773216 51.872609 28.638119 10.613539 38.442753 33.934852 46.047271 -34.684165 45.577408 6.817193 -7.843293 2.055336 -11.177024 -68.342333 49.012474 -64.509299 -43.373918 44.651826 -55.882408 52.398640 43.339582 10.670623 -1.859103 -11.672161 3.134814 -0.605547 0.416753 2.549476 1.316355 6.882071 -2.286372 -0.046387 -0.170349 -0.088750 -3.384933 -11.783076 2.739628 0.379545 -0.067861 4.964232 0.703317 6.434987 0.557541 -0.018773 0.092132 0.069315 
13.446439 3.313184 82.638924 -4.585119 -1.494998 -111.111004 9.511972 -0.121389 -7.711370 4.183983 -0.215967 -3.353282 4.183984 -0.215966 -3.353283 3.136909 -0.184950 -2.513619 5.404956 -19.149426 -20.053499 3.770044 -0.180618 -34.969851 6.507549 12.070746 -4.780410 51.801565 28.597251 10.537927 39.031966 34.040618 46.380307 -34.934768 44.837426 5.022849 -7.829449 2.073300 -11.166699 -68.070867 49.215423 -64.285850 -43.308396 44.775261 -55.768587 52.320564 42.994921 10.890994 -1.851203 -11.656264 3.187976 -0.617750 0.402456 2.605384 1.322653 6.884357 -2.234833 -0.046826 -0.175288 -0.087033 -3.386195 -11.799202 2.754398 0.389475 -0.084365 5.038144 0.714160 6.471399 0.616128 -0.026237 0.087743 0.067171 
13.441770 3.299843 82.634834 -4.573569 -1.516199 -111.268385 9.506706 -0.111439 -7.707232 4.181094 -0.211197 -3.350614 4.181096 -0.211198 -3.350612 3.134772 -0.181339 -2.511648 5.424645 -19.141986 -20.058466 3.802257 -0.163072 -34.973379 6.495425 12.172237 -4.818619 51.711468 28.606753 10.381080 39.724063 33.959461 46.844484 -35.228856 43.871063 3.252818 -7.824269 2.119057 -11.130450 -67.880496 49.397448 -64.117110 -43.286952 44.880340 -55.710001 52.208982 42.721068 11.119912 -1.846473 -11.624553 3.269073 -0.623151 0.386278 2.635934 1.321847 6.886558 -2.196152 -0.045314 -0.180205 -0.085604 -3.381802 -11.797181 2.786412 0.386494 -0.104654 5.103509 0.729431 6.511090 0.664335 -0.031394 0.081680 0.065749 
13.433538 3.285872 82.631096 -4.548757 -1.537221 -111.420097 9.509425 -0.096895 -7.693651 4.182190 -0.204270 -3.344098 4.182189 -0.204272 -3.344094 3.135635 -0.176107 -2.506812 5.441330 -19.125523 -20.067407 3.825975 -0.130393 -34.985960 6.485816 12.195206 -4.843723 51.613393 28.704638 10.200725 40.442377 33.642916 47.485353 -35.586016 42.671726 1.518734 -7.833008 2.186256 -11.087627 -67.747526 49.561526 -63.981292 -43.245636 44.974258 -55.655520 52.086087 42.519598 11.290563 -1.833651 -11.577234 3.357078 -0.630308 0.366945 2.655425 1.321252 6.884517 -2.159705 -0.044254 -0.181538 -0.083582 -3.365603 -11.777785 2.841967 0.374590 -0.131024 5.158528 0.742908 6.556593 0.698486 -0.033321 0.073082 0.064558 
13.423334 3.269842 82.627876 -4.515012 -1.554849 -111.565089 9.518053 -0.076548 -7.680108 4.186238 -0.194808 -3.337382 4.186237 -0.194810 -3.337378 3.138721 -0.168985 -2.501836 5.446734 -19.106723 -20.065679 3.831863 -0.094673 -34.982822 6.464574 12.153906 -4.870719 51.525783 28.861412 10.045381 41.070532 33.181612 48.150778 -35.561271 41.403032 0.223784 -7.832013 2.244468 -11.023342 -67.680672 49.728084 -63.882431 -43.186979 45.043264 -55.607862 51.899698 42.268441 11.359640 -1.816466 -11.524839 3.429510 -0.640873 0.356751 2.683876 1.323574 6.875586 -2.116187 -0.044783 -0.181291 -0.081020 -3.344979 -11.750040 2.906655 0.361490 -0.152762 5.207885 0.752424 6.598246 0.715787 -0.033739 0.066033 0.063063 
13.413971 3.254881 82.625031 -4.482784 -1.569001 -111.699541 9.526159 -0.054911 -7.675259 4.190320 -0.185008 -3.334279 4.190322 -0.185010 -3.334274 3.141840 -0.161631 -2.499574 5.443808 -19.089096 -20.048577 3.827280 -0.060939 -34.954125 6.442241 12.211487 -4.910712 51.397092 28.993781 9.878723 41.560987 32.731353 48.733130 -34.802300 40.270529 -0.539178 -7.828163 2.317472 -10.942942 -67.573985 49.885407 -63.730835 -43.195298 45.099186 -55.653877 51.765450 41.974323 11.422629 -1.803706 -11.476907 3.478118 -0.646981 0.351407 2.736476 1.323433 6.866392 -2.087240 -0.045424 -0.181402 -0.079290 -3.330418 -11.728591 2.976691 0.355326 -0.160696 5.240794 0.759153 6.632280 0.728235 -0.033468 0.060096 0.061088 
13.403904 3.243064 82.622635 -4.456188 -1.579071 -111.829765 9.530205 -0.034513 -7.674444 4.191572 -0.176415 -3.333820 4.191571 -0.176415 -3.333821 3.142830 -0.155193 -2.499292 5.439435 -19.073006 -20.020714 3.823327 -0.028835 -34.906092 6.440044 12.370281 -4.934096 51.260962 29.114699 9.693759 42.073702 32.397302 49.335146 -33.230469 39.315634 -0.755857 -7.824318 2.387165 -10.887473 -67.434649 50.081488 -63.547151 -43.271110 45.144514 -55.781503 51.742539 41.690635 11.571963 -1.808358 -11.428290 3.535313 -0.635340 0.340843 2.788911 1.317827 6.858129 -2.051157 -0.046597 -0.181328 -0.078146 -3.327062 -11.709280 3.047115 0.355362 -0.165592 5.267034 0.767328 6.658643 0.758485 -0.034032 0.058490 0.059488 
13.391377 3.237019 82.620735 -4.430041 -1.585733 -111.955236 9.532026 -0.014834 -7.674897 4.191790 -0.168236 -3.334354 4.191790 -0.168236 -3.334353 3.143034 -0.149062 -2.499743 5.435885 -19.058782 -19.989961 3.822090 0.000438 -34.852314 6.432485 12.491912 -4.963212 51.212933 29.333586 9.592750 42.748716 32.112841 50.077916 -31.388063 38.500035 -0.720289 -7.830771 2.453879 -10.855002 -67.337647 50.323481 -63.413361 -43.348981 45.158431 -55.900618 51.817640 41.557709 11.817106 -1.811012 -11.367443 3.616029 -0.632713 0.308073 2.798311 1.318599 6.858779 -2.019895 -0.047203 -0.180570 -0.076831 -3.333097 -11.686037 3.107807 0.364783 -0.169254 5.301473 0.771531 6.677670 0.790932 -0.033214 0.060043 0.057511 
13.376550 3.232387 82.618828 -4.402605 -1.585166 -112.070529 9.534187 0.008808 -7.674369 4.191590 -0.157621 -3.333945 4.191591 -0.157621 -3.333941 3.142942 -0.141096 -2.499516 5.426182 -19.045702 -19.964151 3.808764 0.025503 -34.809448 6.398011 12.534481 -5.012129 51.257493 29.667483 9.550743 43.499221 31.786560 50.944390 -29.526556 37.686945 -0.645088 -7.824392 2.500197 -10.800039 -67.349961 50.571298 -63.372537 -43.486927 45.158400 -56.047610 51.836826 41.546866 11.975675 -1.816057 -11.298414 3.691465 -0.635918 0.268157 2.783748 1.321252 6.863818 -1.964336 -0.043598 -0.182465 -0.073670 -3.343263 -11.651130 3.144958 0.375034 -0.183323 5.357819 0.772879 6.698678 0.808555 -0.031694 0.061642 0.054866 
